<?xml version="1.0" encoding="UTF-8" standalone="no"?><!DOCTYPE svg PUBLIC "-//W3C//DTD SVG 1.1//EN" "http://www.w3.org/Graphics/SVG/1.1/DTD/svg11.dtd"><svg width="100%" height="100%" viewBox="0 0 300 225" version="1.1" xmlns="http://www.w3.org/2000/svg" xmlns:xlink="http://www.w3.org/1999/xlink" xml:space="preserve" xmlns:serif="http://www.serif.com/" style="fill-rule:evenodd;clip-rule:evenodd;stroke-linecap:round;stroke-linejoin:round;"><rect id="bg" x="-0.242" y="-0.01" width="300" height="225" style="fill:#b8c8d7;"/><circle id="disk" cx="94.165" cy="77.871" r="37.5" style="fill:#9db4c9;"/><path id="mountain" d="M-0.853,247.03l-25.6,-43.137l95.041,-72.496l50.8,43.517l91.909,-80.865l93.796,70.933l-5.343,82.048l-300.603,0Z" style="fill:#8396ab;fill-rule:nonzero;"/><g id="multi-images-icon"><path id="img-back" d="M128.16,29.951c-0,-5.166 -4.192,-9.357 -9.357,-9.357l-90.455,-0c-5.165,-0 -9.357,4.191 -9.357,9.357l0,59.264c0,5.165 4.192,9.357 9.357,9.357l90.455,-0c5.165,-0 9.357,-4.192 9.357,-9.357l-0,-59.264Z" style="fill:none;stroke:#8396ab;stroke-width:9.36px;"/><g><rect id="bg1" serif:id="bg" x="42.137" y="37.829" width="101.094" height="70.738" style="fill:#b8c8d7;"/><ellipse id="disk1" serif:id="disk" cx="73.87" cy="62.309" rx="12.637" ry="11.789" style="fill:#9db4c9;"/><path id="mountain1" serif:id="mountain" d="M41.851,115.49l-8.627,-13.561l32.029,-22.791l17.117,13.68l30.971,-25.423l31.608,22.301l-1.799,25.794l-101.299,0Z" style="fill:#8396ab;fill-rule:nonzero;"/></g><path id="img-front" d="M147.062,45.547c-0,-5.165 -4.2,-9.357 -9.374,-9.357l-90.609,0c-5.174,0 -9.374,4.192 -9.374,9.357l0,59.262c0,5.165 4.2,9.357 9.374,9.357l90.609,0c5.174,0 9.374,-4.192 9.374,-9.357l-0,-59.262Z" style="fill:none;stroke:#8396ab;stroke-width:9.36px;"/></g></svg>