<?xml version="1.0" encoding="UTF-8" standalone="no"?><!DOCTYPE svg PUBLIC "-//W3C//DTD SVG 1.1//EN" "http://www.w3.org/Graphics/SVG/1.1/DTD/svg11.dtd"><svg width="100%" height="100%" viewBox="0 0 66 50" version="1.1" xmlns="http://www.w3.org/2000/svg" xmlns:xlink="http://www.w3.org/1999/xlink" xml:space="preserve" xmlns:serif="http://www.serif.com/" style="fill-rule:evenodd;clip-rule:evenodd;stroke-linecap:round;stroke-linejoin:round;"><g id="multi-images-icon"><path id="img-back" d="M54.6,6.737c0,-2.477 -2.01,-4.487 -4.487,-4.487l-43.376,0c-2.477,0 -4.487,2.01 -4.487,4.487l-0,28.419c-0,2.477 2.01,4.487 4.487,4.487l43.376,-0c2.477,-0 4.487,-2.01 4.487,-4.487l0,-28.419Z" style="fill:none;stroke:#8396ab;stroke-width:4.49px;"/><g><rect id="bg" x="13.349" y="10.515" width="48.478" height="33.921" style="fill:#b8c8d7;"/><ellipse id="disk" cx="28.566" cy="22.254" rx="6.06" ry="5.653" style="fill:#9db4c9;"/><path id="mountain" d="M13.212,47.756l-4.137,-6.503l15.359,-10.929l8.208,6.56l14.852,-12.191l15.157,10.694l-0.863,12.369l-48.576,0Z" style="fill:#8396ab;fill-rule:nonzero;"/></g><path id="img-front" d="M63.664,14.216c-0,-2.477 -2.014,-4.487 -4.495,-4.487l-43.45,-0c-2.481,-0 -4.495,2.01 -4.495,4.487l0,28.418c0,2.477 2.014,4.487 4.495,4.487l43.45,0c2.481,0 4.495,-2.01 4.495,-4.487l-0,-28.418Z" style="fill:none;stroke:#8396ab;stroke-width:4.49px;"/></g></svg>