<?xml version="1.0" encoding="UTF-8" standalone="no"?><!DOCTYPE svg PUBLIC "-//W3C//DTD SVG 1.1//EN" "http://www.w3.org/Graphics/SVG/1.1/DTD/svg11.dtd"><svg width="100%" height="100%" viewBox="0 0 85 66" version="1.1" xmlns="http://www.w3.org/2000/svg" xmlns:xlink="http://www.w3.org/1999/xlink" xml:space="preserve" xmlns:serif="http://www.serif.com/" style="fill-rule:evenodd;clip-rule:evenodd;"><g><rect x="12.306" y="12.481" width="62.5" height="43.75" style="fill:#fff;fill-opacity:0.87;"/><path d="M74.375,56.231l-61.031,0c-0.235,0 -0.428,-0.187 -0.428,-0.419l-0,-42.818c-0,-0.232 0.193,-0.419 0.428,-0.419l61.031,-0c0.238,-0 0.431,0.187 0.431,0.419l0,42.818c0,0.232 -0.193,0.419 -0.431,0.419Z" style="fill:none;stroke:#0f6ca9;stroke-width:4.51px;"/><path d="M63.719,0.003l-61.032,0c-1.484,0 -2.687,1.175 -2.687,2.625l0,42.813c0,1.45 1.203,2.625 2.688,2.625l4.381,-0l-0,-4.407l-2.556,0l-0,-39.25l57.375,0l-0.001,2.416l4.516,-0l0,-4.2c0,-1.447 -1.197,-2.625 -2.678,-2.625l-0.006,0.003Zm-13.969,25.228l8.188,11.544l4.318,-6l6.147,17.438l-48.566,-0.001c0.147,-0.943 0.513,-2.328 1.482,-3.671c2.987,-4.204 9.156,-4.407 10.228,-4.457c1.844,-0.062 5.05,0.188 5.562,0.232c1.013,0.081 1.832,0.165 2.388,0.228l10.259,-15.319l-0.006,0.006Z" style="fill:#0f6ca9;"/><ellipse cx="30.322" cy="27.75" rx="5.372" ry="5.247" style="fill:#0f6ca9;"/></g></svg>